<?xml version="1.0" encoding="utf-8" standalone="no"?>
<!DOCTYPE svg PUBLIC "-//W3C//DTD SVG 1.1//EN"
  "http://www.w3.org/Graphics/SVG/1.1/DTD/svg11.dtd">
<svg xmlns:xlink="http://www.w3.org/1999/xlink" width="296.957656pt" height="221.530312pt" viewBox="0 0 296.957656 221.530312" xmlns="http://www.w3.org/2000/svg" version="1.1">
 <metadata>
  <rdf:RDF xmlns:dc="http://purl.org/dc/elements/1.1/" xmlns:cc="http://creativecommons.org/ns#" xmlns:rdf="http://www.w3.org/1999/02/22-rdf-syntax-ns#">
   <cc:Work>
    <dc:type rdf:resource="http://purl.org/dc/dcmitype/StillImage"/>
    <dc:date>2026-09-03T15:59:45.562768</dc:date>
    <dc:format>image/svg+xml</dc:format>
    <dc:creator>
     <cc:Agent>
      <dc:title>Matplotlib v3.10.9, https://matplotlib.org/</dc:title>
     </cc:Agent>
    </dc:creator>
   </cc:Work>
  </rdf:RDF>
 </metadata>
 <defs>
  <style type="text/css">*{stroke-linejoin: round; stroke-linecap: butt}</style>
 </defs>
 <g id="figure_1">
  <g id="patch_1">
   <path d="M 0 221.530312 
L 296.957656 221.530312 
L 296.957656 0 
L 0 0 
z
" style="fill: #ffffff"/>
  </g>
  <g id="axes_1">
   <g id="patch_2">
    <path d="M 41.748438 184.36 
L 282.808437 184.36 
L 282.808437 7.2 
L 41.748438 7.2 
z
" style="fill: #ffffff"/>
   </g>
   <g id="FillBetweenPolyCollection_1">
    <defs>
     <path id="m46bcafaaab" d="M 41.748438 -37.170313 
L 41.748438 -37.170313 
L 42.959794 -37.170313 
L 44.171151 -37.170313 
L 45.382508 -37.170313 
L 46.593865 -37.170313 
L 47.805221 -37.170313 
L 49.016578 -37.170313 
L 50.227935 -37.170313 
L 51.439292 -37.170313 
L 52.650649 -37.170313 
L 53.862005 -37.170313 
L 55.073362 -37.170313 
L 56.284719 -37.170313 
L 57.496076 -37.170313 
L 58.707432 -37.170313 
L 59.918789 -37.170313 
L 61.130146 -37.170313 
L 62.341503 -37.170313 
L 63.55286 -37.170313 
L 64.764216 -37.170313 
L 65.975573 -37.170313 
L 67.18693 -37.170313 
L 68.398287 -37.170313 
L 69.609644 -37.170313 
L 70.821 -37.170313 
L 72.032357 -37.170313 
L 73.243714 -37.170313 
L 74.455071 -37.170313 
L 75.666427 -37.170313 
L 76.877784 -37.170313 
L 78.089141 -37.170313 
L 79.300498 -37.170313 
L 80.511855 -37.170313 
L 81.723211 -37.170313 
L 82.934568 -37.170313 
L 84.145925 -37.170313 
L 85.357282 -37.170313 
L 86.568639 -37.170313 
L 87.779995 -37.170313 
L 88.991352 -37.170313 
L 90.202709 -37.170313 
L 91.414066 -37.170313 
L 92.625422 -37.170313 
L 93.836779 -37.170313 
L 95.048136 -37.170313 
L 96.259493 -37.170313 
L 97.47085 -37.170313 
L 98.682206 -37.170313 
L 99.893563 -37.170313 
L 101.10492 -37.170313 
L 102.316277 -37.170313 
L 103.527633 -37.170313 
L 104.73899 -37.170313 
L 105.950347 -37.170313 
L 107.161704 -37.170313 
L 108.373061 -37.170313 
L 109.584417 -37.170313 
L 110.795774 -37.170313 
L 112.007131 -37.170313 
L 113.218488 -37.170313 
L 114.429845 -37.170313 
L 115.641201 -37.170313 
L 116.852558 -37.170313 
L 118.063915 -37.170313 
L 119.275272 -37.170313 
L 120.486628 -37.170313 
L 121.697985 -37.170313 
L 122.909342 -37.170313 
L 124.120699 -37.170313 
L 125.332056 -37.170313 
L 126.543412 -37.170313 
L 127.754769 -37.170313 
L 128.966126 -37.170313 
L 130.177483 -37.170313 
L 131.38884 -37.170313 
L 132.600196 -37.170313 
L 133.811553 -37.170313 
L 135.02291 -37.170313 
L 136.234267 -37.170313 
L 137.445623 -37.170313 
L 138.65698 -37.170313 
L 139.868337 -37.170313 
L 141.079694 -37.170313 
L 142.291051 -37.170313 
L 143.502407 -37.170313 
L 144.713764 -37.170313 
L 145.925121 -37.170313 
L 147.136478 -37.170313 
L 148.347834 -37.170313 
L 149.559191 -37.170313 
L 150.770548 -37.170313 
L 151.981905 -37.170313 
L 153.193262 -37.170313 
L 154.404618 -37.170313 
L 155.615975 -37.170313 
L 156.827332 -37.170313 
L 158.038689 -37.170313 
L 159.250046 -37.170313 
L 160.461402 -37.170313 
L 161.672759 -37.170313 
L 162.884116 -37.170313 
L 164.095473 -37.170313 
L 165.306829 -37.170313 
L 166.518186 -37.170313 
L 167.729543 -37.170313 
L 168.9409 -37.170313 
L 170.152257 -37.170313 
L 171.363613 -37.170313 
L 172.57497 -37.170313 
L 173.786327 -37.170313 
L 174.997684 -37.170313 
L 176.209041 -37.170313 
L 177.420397 -37.170313 
L 178.631754 -37.170313 
L 179.843111 -37.170313 
L 181.054468 -37.170313 
L 182.265824 -37.170313 
L 183.477181 -37.170313 
L 184.688538 -37.170313 
L 185.899895 -37.170313 
L 187.111252 -37.170313 
L 188.322608 -37.170313 
L 189.533965 -37.170313 
L 190.745322 -37.170313 
L 191.956679 -37.170313 
L 193.168035 -37.170313 
L 194.379392 -37.170313 
L 195.590749 -37.170313 
L 196.802106 -37.170313 
L 198.013463 -37.170313 
L 199.224819 -37.170313 
L 200.436176 -37.170313 
L 201.647533 -37.170313 
L 202.85889 -37.170313 
L 204.070247 -37.170313 
L 205.281603 -37.170313 
L 206.49296 -37.170313 
L 207.704317 -37.170313 
L 208.915674 -37.170313 
L 210.12703 -37.170313 
L 211.338387 -37.170313 
L 212.549744 -37.170313 
L 213.761101 -37.170313 
L 214.972458 -37.170313 
L 216.183814 -37.170313 
L 217.395171 -37.170313 
L 218.606528 -37.170313 
L 219.817885 -37.170313 
L 221.029242 -37.170313 
L 222.240598 -37.170313 
L 223.451955 -37.170313 
L 224.663312 -37.170313 
L 225.874669 -37.170313 
L 227.086025 -37.170313 
L 228.297382 -37.170313 
L 229.508739 -37.170313 
L 230.720096 -37.170313 
L 231.931453 -37.170313 
L 233.142809 -37.170313 
L 234.354166 -37.170313 
L 235.565523 -37.170313 
L 236.77688 -37.170313 
L 237.988236 -37.170313 
L 239.199593 -37.170313 
L 240.41095 -37.170313 
L 241.622307 -37.170313 
L 242.833664 -37.170313 
L 244.04502 -37.170313 
L 245.256377 -37.170313 
L 246.467734 -37.170313 
L 247.679091 -37.170313 
L 248.890448 -37.170313 
L 250.101804 -37.170313 
L 251.313161 -37.170313 
L 252.524518 -37.170313 
L 253.735875 -37.170313 
L 254.947231 -37.170313 
L 256.158588 -37.170313 
L 257.369945 -37.170313 
L 258.581302 -37.170313 
L 259.792659 -37.170313 
L 261.004015 -37.170313 
L 262.215372 -37.170313 
L 263.426729 -37.170313 
L 264.638086 -37.170313 
L 265.849443 -37.170313 
L 267.060799 -37.170313 
L 268.272156 -37.170313 
L 269.483513 -37.170313 
L 270.69487 -37.170313 
L 271.906226 -37.170313 
L 273.117583 -37.170313 
L 274.32894 -37.170313 
L 275.540297 -37.170313 
L 276.751654 -37.170313 
L 277.96301 -37.170313 
L 279.174367 -37.170313 
L 280.385724 -37.170313 
L 281.597081 -37.170313 
L 282.808437 -37.170313 
L 282.808437 -205.894122 
L 282.808437 -205.894122 
L 281.597081 -203.363307 
L 280.385724 -200.857928 
L 279.174367 -198.377855 
L 277.96301 -195.92296 
L 276.751654 -193.493115 
L 275.540297 -191.088192 
L 274.32894 -188.708061 
L 273.117583 -186.352594 
L 271.906226 -184.021663 
L 270.69487 -181.71514 
L 269.483513 -179.432896 
L 268.272156 -177.174802 
L 267.060799 -174.94073 
L 265.849443 -172.730552 
L 264.638086 -170.544139 
L 263.426729 -168.381363 
L 262.215372 -166.242095 
L 261.004015 -164.126206 
L 259.792659 -162.033569 
L 258.581302 -159.964055 
L 257.369945 -157.917535 
L 256.158588 -155.893881 
L 254.947231 -153.892965 
L 253.735875 -151.914657 
L 252.524518 -149.95883 
L 251.313161 -148.025355 
L 250.101804 -146.114104 
L 248.890448 -144.224947 
L 247.679091 -142.357758 
L 246.467734 -140.512406 
L 245.256377 -138.688765 
L 244.04502 -136.886705 
L 242.833664 -135.106097 
L 241.622307 -133.346814 
L 240.41095 -131.608727 
L 239.199593 -129.891707 
L 237.988236 -128.195627 
L 236.77688 -126.520357 
L 235.565523 -124.865769 
L 234.354166 -123.231734 
L 233.142809 -121.618125 
L 231.931453 -120.024812 
L 230.720096 -118.451668 
L 229.508739 -116.898564 
L 228.297382 -115.36537 
L 227.086025 -113.85196 
L 225.874669 -112.358204 
L 224.663312 -110.883974 
L 223.451955 -109.429142 
L 222.240598 -107.993578 
L 221.029242 -106.577155 
L 219.817885 -105.179744 
L 218.606528 -103.801217 
L 217.395171 -102.441445 
L 216.183814 -101.1003 
L 214.972458 -99.777653 
L 213.761101 -98.473376 
L 212.549744 -97.18734 
L 211.338387 -95.919417 
L 210.12703 -94.669478 
L 208.915674 -93.437396 
L 207.704317 -92.223041 
L 206.49296 -91.026284 
L 205.281603 -89.846999 
L 204.070247 -88.685056 
L 202.85889 -87.540326 
L 201.647533 -86.412681 
L 200.436176 -85.301994 
L 199.224819 -84.208134 
L 198.013463 -83.130974 
L 196.802106 -82.070386 
L 195.590749 -81.026241 
L 194.379392 -79.99841 
L 193.168035 -78.986765 
L 191.956679 -77.991177 
L 190.745322 -77.011519 
L 189.533965 -76.047661 
L 188.322608 -75.099475 
L 187.111252 -74.166833 
L 185.899895 -73.249606 
L 184.688538 -72.347666 
L 183.477181 -71.460884 
L 182.265824 -70.589132 
L 181.054468 -69.732282 
L 179.843111 -68.890204 
L 178.631754 -68.062771 
L 177.420397 -67.249854 
L 176.209041 -66.451324 
L 174.997684 -65.667054 
L 173.786327 -64.896914 
L 172.57497 -64.140776 
L 171.363613 -63.398512 
L 170.152257 -62.669993 
L 168.9409 -61.955091 
L 167.729543 -61.253677 
L 166.518186 -60.565623 
L 165.306829 -59.890801 
L 164.095473 -59.229081 
L 162.884116 -58.580336 
L 161.672759 -57.944437 
L 160.461402 -57.321255 
L 159.250046 -56.710663 
L 158.038689 -56.112531 
L 156.827332 -55.526731 
L 155.615975 -54.953135 
L 154.404618 -54.391615 
L 153.193262 -53.842041 
L 151.981905 -53.304285 
L 150.770548 -52.77822 
L 149.559191 -52.263715 
L 148.347834 -51.760644 
L 147.136478 -51.268877 
L 145.925121 -50.788286 
L 144.713764 -50.318743 
L 143.502407 -49.860119 
L 142.291051 -49.412286 
L 141.079694 -48.975114 
L 139.868337 -48.548477 
L 138.65698 -48.132245 
L 137.445623 -47.726289 
L 136.234267 -47.330482 
L 135.02291 -46.944695 
L 133.811553 -46.568799 
L 132.600196 -46.202666 
L 131.38884 -45.846168 
L 130.177483 -45.499176 
L 128.966126 -45.161561 
L 127.754769 -44.833195 
L 126.543412 -44.513951 
L 125.332056 -44.203698 
L 124.120699 -43.902309 
L 122.909342 -43.609655 
L 121.697985 -43.325609 
L 120.486628 -43.05004 
L 119.275272 -42.782822 
L 118.063915 -42.523825 
L 116.852558 -42.272921 
L 115.641201 -42.029981 
L 114.429845 -41.794878 
L 113.218488 -41.567482 
L 112.007131 -41.347665 
L 110.795774 -41.135299 
L 109.584417 -40.930255 
L 108.373061 -40.732405 
L 107.161704 -40.54162 
L 105.950347 -40.357773 
L 104.73899 -40.180733 
L 103.527633 -40.010374 
L 102.316277 -39.846565 
L 101.10492 -39.68918 
L 99.893563 -39.53809 
L 98.682206 -39.393165 
L 97.47085 -39.254279 
L 96.259493 -39.121301 
L 95.048136 -38.994104 
L 93.836779 -38.872559 
L 92.625422 -38.756538 
L 91.414066 -38.645913 
L 90.202709 -38.540554 
L 88.991352 -38.440334 
L 87.779995 -38.345123 
L 86.568639 -38.254794 
L 85.357282 -38.169219 
L 84.145925 -38.088267 
L 82.934568 -38.011812 
L 81.723211 -37.939725 
L 80.511855 -37.871876 
L 79.300498 -37.808139 
L 78.089141 -37.748383 
L 76.877784 -37.692482 
L 75.666427 -37.640305 
L 74.455071 -37.591726 
L 73.243714 -37.546615 
L 72.032357 -37.504844 
L 70.821 -37.466285 
L 69.609644 -37.430808 
L 68.398287 -37.398286 
L 67.18693 -37.368591 
L 65.975573 -37.341593 
L 64.764216 -37.317164 
L 63.55286 -37.295176 
L 62.341503 -37.2755 
L 61.130146 -37.258008 
L 59.918789 -37.242571 
L 58.707432 -37.229062 
L 57.496076 -37.21735 
L 56.284719 -37.207309 
L 55.073362 -37.198809 
L 53.862005 -37.191723 
L 52.650649 -37.18592 
L 51.439292 -37.181274 
L 50.227935 -37.177656 
L 49.016578 -37.174937 
L 47.805221 -37.172989 
L 46.593865 -37.171683 
L 45.382508 -37.170891 
L 44.171151 -37.170484 
L 42.959794 -37.170334 
L 41.748438 -37.170313 
z
" style="stroke: #6db0d6; stroke-opacity: 0.15"/>
    </defs>
    <g clip-path="url(#pf1e7f57010)">
     <use xlink:href="#m46bcafaaab" x="0" y="221.530312" style="fill: #6db0d6; fill-opacity: 0.15; stroke: #6db0d6; stroke-opacity: 0.15"/>
    </g>
   </g>
   <g id="matplotlib.axis_1">
    <g id="xtick_1">
     <g id="line2d_1">
      <defs>
       <path id="m3968a52de6" d="M 0 0 
L 0 3.5 
" style="stroke: #202020; stroke-width: 0.75"/>
      </defs>
      <g>
       <use xlink:href="#m3968a52de6" x="41.748438" y="184.36" style="fill: #202020; stroke: #202020; stroke-width: 0.75"/>
      </g>
     </g>
     <g id="text_1">
      <!-- 0.0 -->
      <g style="fill: #202020" transform="translate(34.799219 198.650625) scale(0.1 -0.1)">
       <defs>
        <path id="TeXGyreHeros-Regular-30" d="M 3245 2182 
C 3245 3757 2746 4538 1760 4538 
C 781 4538 275 3744 275 2221 
C 275 691 787 -96 1760 -96 
C 2720 -96 3245 691 3245 2182 
z
M 2669 2234 
C 2669 947 2374 371 1747 371 
C 1152 371 851 973 851 2214 
C 851 3456 1152 4038 1760 4038 
C 2368 4038 2669 3450 2669 2234 
z
" transform="scale(0.015625)"/>
        <path id="TeXGyreHeros-Regular-2e" d="M 1222 0 
L 1222 666 
L 557 666 
L 557 0 
L 1222 0 
z
" transform="scale(0.015625)"/>
       </defs>
       <use xlink:href="#TeXGyreHeros-Regular-30"/>
       <use xlink:href="#TeXGyreHeros-Regular-2e" transform="translate(55.599991 0)"/>
       <use xlink:href="#TeXGyreHeros-Regular-30" transform="translate(83.399979 0)"/>
      </g>
     </g>
    </g>
    <g id="xtick_2">
     <g id="line2d_2">
      <g>
       <use xlink:href="#m3968a52de6" x="89.960437" y="184.36" style="fill: #202020; stroke: #202020; stroke-width: 0.75"/>
      </g>
     </g>
     <g id="text_2">
      <!-- 0.2 -->
      <g style="fill: #202020" transform="translate(83.011219 198.650625) scale(0.1 -0.1)">
       <defs>
        <path id="TeXGyreHeros-Regular-32" d="M 3270 3206 
C 3270 3974 2675 4538 1818 4538 
C 890 4538 352 4064 320 2963 
L 883 2963 
C 928 3725 1242 4045 1798 4045 
C 2310 4045 2694 3680 2694 3194 
C 2694 2835 2483 2528 2080 2298 
L 1491 1965 
C 544 1427 269 998 218 0 
L 3238 0 
L 3238 557 
L 851 557 
C 909 928 1114 1165 1670 1491 
L 2310 1837 
C 2944 2176 3270 2650 3270 3206 
z
" transform="scale(0.015625)"/>
       </defs>
       <use xlink:href="#TeXGyreHeros-Regular-30"/>
       <use xlink:href="#TeXGyreHeros-Regular-2e" transform="translate(55.599991 0)"/>
       <use xlink:href="#TeXGyreHeros-Regular-32" transform="translate(83.399979 0)"/>
      </g>
     </g>
    </g>
    <g id="xtick_3">
     <g id="line2d_3">
      <g>
       <use xlink:href="#m3968a52de6" x="138.172438" y="184.36" style="fill: #202020; stroke: #202020; stroke-width: 0.75"/>
      </g>
     </g>
     <g id="text_3">
      <!-- 0.4 -->
      <g style="fill: #202020" transform="translate(131.223219 198.650625) scale(0.1 -0.1)">
       <defs>
        <path id="TeXGyreHeros-Regular-34" d="M 3328 1088 
L 3328 1594 
L 2656 1594 
L 2656 4538 
L 2240 4538 
L 179 1683 
L 179 1088 
L 2093 1088 
L 2093 0 
L 2656 0 
L 2656 1088 
L 3328 1088 
z
M 2093 1594 
L 672 1594 
L 2093 3578 
L 2093 1594 
z
" transform="scale(0.015625)"/>
       </defs>
       <use xlink:href="#TeXGyreHeros-Regular-30"/>
       <use xlink:href="#TeXGyreHeros-Regular-2e" transform="translate(55.599991 0)"/>
       <use xlink:href="#TeXGyreHeros-Regular-34" transform="translate(83.399979 0)"/>
      </g>
     </g>
    </g>
    <g id="xtick_4">
     <g id="line2d_4">
      <g>
       <use xlink:href="#m3968a52de6" x="186.384437" y="184.36" style="fill: #202020; stroke: #202020; stroke-width: 0.75"/>
      </g>
     </g>
     <g id="text_4">
      <!-- 0.6 -->
      <g style="fill: #202020" transform="translate(179.435219 198.650625) scale(0.1 -0.1)">
       <defs>
        <path id="TeXGyreHeros-Regular-36" d="M 3283 1408 
C 3283 2253 2707 2822 1894 2822 
C 1446 2822 1094 2650 851 2317 
C 858 3424 1216 4038 1862 4038 
C 2259 4038 2534 3789 2624 3354 
L 3187 3354 
C 3078 4096 2592 4538 1901 4538 
C 845 4538 275 3648 275 2067 
C 275 653 762 -96 1798 -96 
C 2662 -96 3283 518 3283 1408 
z
M 2707 1363 
C 2707 794 2323 403 1805 403 
C 1280 403 883 813 883 1395 
C 883 1958 1267 2323 1824 2323 
C 2368 2323 2707 1971 2707 1363 
z
" transform="scale(0.015625)"/>
       </defs>
       <use xlink:href="#TeXGyreHeros-Regular-30"/>
       <use xlink:href="#TeXGyreHeros-Regular-2e" transform="translate(55.599991 0)"/>
       <use xlink:href="#TeXGyreHeros-Regular-36" transform="translate(83.399979 0)"/>
      </g>
     </g>
    </g>
    <g id="xtick_5">
     <g id="line2d_5">
      <g>
       <use xlink:href="#m3968a52de6" x="234.596437" y="184.36" style="fill: #202020; stroke: #202020; stroke-width: 0.75"/>
      </g>
     </g>
     <g id="text_5">
      <!-- 0.8 -->
      <g style="fill: #202020" transform="translate(227.647219 198.650625) scale(0.1 -0.1)">
       <defs>
        <path id="TeXGyreHeros-Regular-38" d="M 3283 1280 
C 3283 1786 3027 2138 2502 2387 
C 2970 2669 3123 2899 3123 3328 
C 3123 4038 2566 4538 1760 4538 
C 960 4538 397 4038 397 3328 
C 397 2906 550 2675 1011 2387 
C 493 2138 237 1786 237 1286 
C 237 454 864 -96 1760 -96 
C 2656 -96 3283 454 3283 1280 
z
M 2547 3315 
C 2547 2893 2234 2611 1760 2611 
C 1286 2611 973 2893 973 3322 
C 973 3757 1286 4038 1760 4038 
C 2240 4038 2547 3757 2547 3315 
z
M 2707 1274 
C 2707 736 2323 403 1747 403 
C 1197 403 813 742 813 1274 
C 813 1805 1197 2138 1760 2138 
C 2323 2138 2707 1805 2707 1274 
z
" transform="scale(0.015625)"/>
       </defs>
       <use xlink:href="#TeXGyreHeros-Regular-30"/>
       <use xlink:href="#TeXGyreHeros-Regular-2e" transform="translate(55.599991 0)"/>
       <use xlink:href="#TeXGyreHeros-Regular-38" transform="translate(83.399979 0)"/>
      </g>
     </g>
    </g>
    <g id="xtick_6">
     <g id="line2d_6">
      <g>
       <use xlink:href="#m3968a52de6" x="282.808437" y="184.36" style="fill: #202020; stroke: #202020; stroke-width: 0.75"/>
      </g>
     </g>
     <g id="text_6">
      <!-- 1.0 -->
      <g style="fill: #202020" transform="translate(275.859219 198.650625) scale(0.1 -0.1)">
       <defs>
        <path id="TeXGyreHeros-Regular-31" d="M 2221 0 
L 2221 4538 
L 1850 4538 
C 1651 3840 1523 3744 653 3635 
L 653 3232 
L 1658 3232 
L 1658 0 
L 2221 0 
z
" transform="scale(0.015625)"/>
       </defs>
       <use xlink:href="#TeXGyreHeros-Regular-31"/>
       <use xlink:href="#TeXGyreHeros-Regular-2e" transform="translate(55.599991 0)"/>
       <use xlink:href="#TeXGyreHeros-Regular-30" transform="translate(83.399979 0)"/>
      </g>
     </g>
    </g>
    <g id="text_7">
     <!-- P(EE$\geq$80%) -->
     <g style="fill: #202020" transform="translate(132.778437 212.130312) scale(0.1 -0.1)">
      <defs>
       <path id="TeXGyreHeros-Regular-50" d="M 3949 3296 
C 3949 4173 3430 4666 2509 4666 
L 582 4666 
L 582 0 
L 1178 0 
L 1178 1978 
L 2643 1978 
C 3411 1978 3949 2522 3949 3296 
z
M 3328 3322 
C 3328 2810 2989 2502 2419 2502 
L 1178 2502 
L 1178 4141 
L 2419 4141 
C 2989 4141 3328 3834 3328 3322 
z
" transform="scale(0.015625)"/>
       <path id="TeXGyreHeros-Regular-28" d="M 1862 -1357 
C 1299 -442 986 634 986 1658 
C 986 2675 1299 3757 1862 4666 
L 1510 4666 
C 870 3827 467 2662 467 1658 
C 467 646 870 -518 1510 -1357 
L 1862 -1357 
z
" transform="scale(0.015625)"/>
       <path id="TeXGyreHeros-Regular-45" d="M 3923 0 
L 3923 525 
L 1171 525 
L 1171 2125 
L 3712 2125 
L 3712 2650 
L 1171 2650 
L 1171 4141 
L 3808 4141 
L 3808 4666 
L 576 4666 
L 576 0 
L 3923 0 
z
" transform="scale(0.015625)"/>
       <path id="DejaVuSans-2265" d="M 678 3175 
L 678 3725 
L 4684 2578 
L 4684 2047 
L 678 897 
L 678 1453 
L 3681 2309 
L 678 3175 
z
M 4684 531 
L 4684 0 
L 678 0 
L 678 531 
L 4684 531 
z
" transform="scale(0.015625)"/>
       <path id="TeXGyreHeros-Regular-25" d="M 2368 3277 
C 2368 3898 1888 4384 1274 4384 
C 678 4384 186 3891 186 3290 
C 186 2688 678 2195 1280 2195 
C 1875 2195 2368 2688 2368 3277 
z
M 1926 3283 
C 1926 2931 1632 2643 1280 2643 
C 922 2643 627 2938 627 3290 
C 627 3648 922 3936 1274 3936 
C 1638 3936 1926 3648 1926 3283 
z
M 4320 4538 
L 3898 4538 
L 1370 -128 
L 1792 -128 
L 4320 4538 
z
M 5498 960 
C 5498 1574 5018 2061 4403 2061 
C 3808 2061 3315 1568 3315 973 
C 3315 371 3808 -122 4410 -122 
C 4998 -122 5498 371 5498 960 
z
M 5056 960 
C 5056 614 4762 326 4410 326 
C 4051 326 3757 614 3757 973 
C 3757 1325 4051 1613 4403 1613 
C 4768 1613 5056 1325 5056 960 
z
" transform="scale(0.015625)"/>
       <path id="TeXGyreHeros-Regular-29" d="M 1638 1651 
C 1638 2662 1235 3827 595 4666 
L 243 4666 
C 806 3750 1120 2675 1120 1651 
C 1120 634 806 -448 243 -1357 
L 595 -1357 
C 1235 -518 1638 646 1638 1651 
z
" transform="scale(0.015625)"/>
      </defs>
      <use xlink:href="#TeXGyreHeros-Regular-50" transform="translate(0 0.09375)"/>
      <use xlink:href="#TeXGyreHeros-Regular-28" transform="translate(66.699997 0.09375)"/>
      <use xlink:href="#TeXGyreHeros-Regular-45" transform="translate(99.999985 0.09375)"/>
      <use xlink:href="#TeXGyreHeros-Regular-45" transform="translate(166.699982 0.09375)"/>
      <use xlink:href="#DejaVuSans-2265" transform="translate(252.882401 0.09375)"/>
      <use xlink:href="#TeXGyreHeros-Regular-38" transform="translate(356.153885 0.09375)"/>
      <use xlink:href="#TeXGyreHeros-Regular-30" transform="translate(411.753876 0.09375)"/>
      <use xlink:href="#TeXGyreHeros-Regular-25" transform="translate(467.353867 0.09375)"/>
      <use xlink:href="#TeXGyreHeros-Regular-29" transform="translate(556.25386 0.09375)"/>
     </g>
    </g>
   </g>
   <g id="matplotlib.axis_2">
    <g id="ytick_1">
     <g id="line2d_7">
      <defs>
       <path id="m269ae4fca5" d="M 0 0 
L -3.5 0 
" style="stroke: #202020; stroke-width: 0.75"/>
      </defs>
      <g>
       <use xlink:href="#m269ae4fca5" x="41.748438" y="184.36" style="fill: #202020; stroke: #202020; stroke-width: 0.75"/>
      </g>
     </g>
     <g id="text_8">
      <!-- 0.0 -->
      <g style="fill: #202020" transform="translate(20.85 188.005312) scale(0.1 -0.1)">
       <use xlink:href="#TeXGyreHeros-Regular-30"/>
       <use xlink:href="#TeXGyreHeros-Regular-2e" transform="translate(55.599991 0)"/>
       <use xlink:href="#TeXGyreHeros-Regular-30" transform="translate(83.399979 0)"/>
      </g>
     </g>
    </g>
    <g id="ytick_2">
     <g id="line2d_8">
      <g>
       <use xlink:href="#m269ae4fca5" x="41.748438" y="150.615238" style="fill: #202020; stroke: #202020; stroke-width: 0.75"/>
      </g>
     </g>
     <g id="text_9">
      <!-- 0.2 -->
      <g style="fill: #202020" transform="translate(20.85 154.260551) scale(0.1 -0.1)">
       <use xlink:href="#TeXGyreHeros-Regular-30"/>
       <use xlink:href="#TeXGyreHeros-Regular-2e" transform="translate(55.599991 0)"/>
       <use xlink:href="#TeXGyreHeros-Regular-32" transform="translate(83.399979 0)"/>
      </g>
     </g>
    </g>
    <g id="ytick_3">
     <g id="line2d_9">
      <g>
       <use xlink:href="#m269ae4fca5" x="41.748438" y="116.870476" style="fill: #202020; stroke: #202020; stroke-width: 0.75"/>
      </g>
     </g>
     <g id="text_10">
      <!-- 0.4 -->
      <g style="fill: #202020" transform="translate(20.85 120.515789) scale(0.1 -0.1)">
       <use xlink:href="#TeXGyreHeros-Regular-30"/>
       <use xlink:href="#TeXGyreHeros-Regular-2e" transform="translate(55.599991 0)"/>
       <use xlink:href="#TeXGyreHeros-Regular-34" transform="translate(83.399979 0)"/>
      </g>
     </g>
    </g>
    <g id="ytick_4">
     <g id="line2d_10">
      <g>
       <use xlink:href="#m269ae4fca5" x="41.748438" y="83.125714" style="fill: #202020; stroke: #202020; stroke-width: 0.75"/>
      </g>
     </g>
     <g id="text_11">
      <!-- 0.6 -->
      <g style="fill: #202020" transform="translate(20.85 86.771027) scale(0.1 -0.1)">
       <use xlink:href="#TeXGyreHeros-Regular-30"/>
       <use xlink:href="#TeXGyreHeros-Regular-2e" transform="translate(55.599991 0)"/>
       <use xlink:href="#TeXGyreHeros-Regular-36" transform="translate(83.399979 0)"/>
      </g>
     </g>
    </g>
    <g id="ytick_5">
     <g id="line2d_11">
      <g>
       <use xlink:href="#m269ae4fca5" x="41.748438" y="49.380952" style="fill: #202020; stroke: #202020; stroke-width: 0.75"/>
      </g>
     </g>
     <g id="text_12">
      <!-- 0.8 -->
      <g style="fill: #202020" transform="translate(20.85 53.026265) scale(0.1 -0.1)">
       <use xlink:href="#TeXGyreHeros-Regular-30"/>
       <use xlink:href="#TeXGyreHeros-Regular-2e" transform="translate(55.599991 0)"/>
       <use xlink:href="#TeXGyreHeros-Regular-38" transform="translate(83.399979 0)"/>
      </g>
     </g>
    </g>
    <g id="ytick_6">
     <g id="line2d_12">
      <g>
       <use xlink:href="#m269ae4fca5" x="41.748438" y="15.63619" style="fill: #202020; stroke: #202020; stroke-width: 0.75"/>
      </g>
     </g>
     <g id="text_13">
      <!-- 1.0 -->
      <g style="fill: #202020" transform="translate(20.85 19.281503) scale(0.1 -0.1)">
       <use xlink:href="#TeXGyreHeros-Regular-31"/>
       <use xlink:href="#TeXGyreHeros-Regular-2e" transform="translate(55.599991 0)"/>
       <use xlink:href="#TeXGyreHeros-Regular-30" transform="translate(83.399979 0)"/>
      </g>
     </g>
    </g>
    <g id="text_14">
     <!-- Desirability Score -->
     <g style="fill: #202020" transform="translate(14.670312 134.67375) rotate(-90) scale(0.1 -0.1)">
      <defs>
       <path id="TeXGyreHeros-Regular-44" d="M 4269 2336 
C 4269 3782 3552 4666 2368 4666 
L 570 4666 
L 570 0 
L 2368 0 
C 3546 0 4269 883 4269 2336 
z
M 3674 2330 
C 3674 1152 3187 525 2266 525 
L 1165 525 
L 1165 4141 
L 2266 4141 
C 3187 4141 3674 3520 3674 2330 
z
" transform="scale(0.015625)"/>
       <path id="TeXGyreHeros-Regular-65" d="M 3283 1523 
C 3283 2010 3245 2317 3149 2566 
C 2931 3117 2419 3450 1792 3450 
C 858 3450 256 2758 256 1658 
C 256 557 838 -96 1779 -96 
C 2547 -96 3078 339 3213 1018 
L 2675 1018 
C 2528 576 2227 397 1798 397 
C 1242 397 826 755 813 1523 
L 3283 1523 
z
M 2714 1997 
C 2714 1997 2714 1971 2707 1958 
L 826 1958 
C 870 2554 1248 2957 1786 2957 
C 2310 2957 2714 2522 2714 1997 
z
" transform="scale(0.015625)"/>
       <path id="TeXGyreHeros-Regular-73" d="M 2938 941 
C 2938 1440 2656 1690 1990 1850 
L 1478 1971 
C 1043 2074 858 2214 858 2451 
C 858 2758 1133 2957 1568 2957 
C 1997 2957 2227 2771 2240 2419 
L 2803 2419 
C 2797 3078 2362 3450 1587 3450 
C 806 3450 301 3046 301 2426 
C 301 1901 570 1651 1363 1459 
L 1862 1338 
C 2234 1248 2381 1139 2381 896 
C 2381 582 2067 397 1600 397 
C 1120 397 851 512 781 1024 
L 218 1024 
C 243 250 678 -96 1555 -96 
C 2400 -96 2938 294 2938 941 
z
" transform="scale(0.015625)"/>
       <path id="TeXGyreHeros-Regular-69" d="M 979 0 
L 979 3354 
L 448 3354 
L 448 0 
L 979 0 
z
M 1050 3859 
L 1050 4525 
L 384 4525 
L 384 3859 
L 1050 3859 
z
" transform="scale(0.015625)"/>
       <path id="TeXGyreHeros-Regular-72" d="M 2054 2886 
L 2054 3430 
C 1965 3443 1920 3450 1850 3450 
C 1504 3450 1242 3245 934 2746 
L 934 3354 
L 448 3354 
L 448 0 
L 979 0 
L 979 1741 
C 979 2496 1229 2874 2054 2886 
z
" transform="scale(0.015625)"/>
       <path id="TeXGyreHeros-Regular-61" d="M 3424 13 
L 3424 416 
C 3366 403 3341 403 3309 403 
C 3123 403 3021 499 3021 666 
L 3021 2534 
C 3021 3130 2586 3450 1760 3450 
C 947 3450 448 3136 416 2362 
L 954 2362 
C 998 2771 1242 2957 1741 2957 
C 2221 2957 2490 2778 2490 2458 
L 2490 2317 
C 2490 2093 2355 1997 1933 1946 
C 1178 1850 1062 1824 858 1741 
C 467 1581 269 1280 269 870 
C 269 262 691 -96 1370 -96 
C 1798 -96 2214 83 2509 397 
C 2566 141 2797 -45 3059 -45 
C 3168 -45 3251 -32 3424 13 
z
M 2490 1158 
C 2490 678 2003 371 1485 371 
C 1069 371 826 518 826 883 
C 826 1235 1062 1389 1632 1472 
C 2195 1549 2310 1574 2490 1658 
L 2490 1158 
z
" transform="scale(0.015625)"/>
       <path id="TeXGyreHeros-Regular-62" d="M 3347 1715 
C 3347 2803 2797 3450 1914 3450 
C 1453 3450 1126 3277 877 2899 
L 877 4666 
L 346 4666 
L 346 0 
L 826 0 
L 826 480 
C 1082 90 1421 -96 1888 -96 
C 2771 -96 3347 627 3347 1715 
z
M 2790 1683 
C 2790 922 2394 403 1811 403 
C 1248 403 877 915 877 1677 
C 877 2464 1248 2976 1811 2950 
C 2406 2950 2790 2432 2790 1683 
z
" transform="scale(0.015625)"/>
       <path id="TeXGyreHeros-Regular-6c" d="M 966 0 
L 966 4666 
L 435 4666 
L 435 0 
L 966 0 
z
" transform="scale(0.015625)"/>
       <path id="TeXGyreHeros-Regular-74" d="M 1626 0 
L 1626 448 
C 1555 429 1472 422 1370 422 
C 1139 422 1075 486 1075 723 
L 1075 2918 
L 1626 2918 
L 1626 3354 
L 1075 3354 
L 1075 4275 
L 544 4275 
L 544 3354 
L 90 3354 
L 90 2918 
L 544 2918 
L 544 486 
C 544 147 774 -45 1190 -45 
C 1318 -45 1446 -32 1626 0 
z
" transform="scale(0.015625)"/>
       <path id="TeXGyreHeros-Regular-79" d="M 3059 3354 
L 2483 3354 
L 1555 742 
L 698 3354 
L 128 3354 
L 1261 -13 
L 1056 -544 
C 966 -781 858 -870 627 -870 
C 550 -870 461 -858 346 -832 
L 346 -1312 
C 454 -1370 563 -1395 704 -1395 
C 1082 -1395 1389 -1184 1568 -704 
L 3059 3354 
z
" transform="scale(0.015625)"/>
       <path id="TeXGyreHeros-Regular-20" transform="scale(0.015625)"/>
       <path id="TeXGyreHeros-Regular-53" d="M 3974 1280 
C 3974 1856 3616 2278 2982 2451 
L 1811 2765 
C 1248 2912 1043 3098 1043 3456 
C 1043 3930 1459 4282 2086 4282 
C 2829 4282 3251 3942 3251 3334 
L 3814 3334 
C 3814 4250 3181 4781 2106 4781 
C 1082 4781 448 4218 448 3373 
C 448 2803 749 2445 1363 2285 
L 2522 1978 
C 3110 1824 3379 1587 3379 1222 
C 3379 710 2995 410 2189 410 
C 1306 410 870 851 870 1517 
L 307 1517 
C 307 416 1050 -115 2150 -115 
C 3334 -115 3974 448 3974 1280 
z
" transform="scale(0.015625)"/>
       <path id="TeXGyreHeros-Regular-63" d="M 3053 1152 
L 2515 1152 
C 2426 614 2150 397 1696 397 
C 1107 397 755 851 755 1645 
C 755 2483 1101 2957 1683 2957 
C 2131 2957 2413 2694 2477 2227 
L 3014 2227 
C 2950 3046 2438 3450 1690 3450 
C 787 3450 198 2758 198 1645 
C 198 563 774 -96 1683 -96 
C 2483 -96 2989 384 3053 1152 
z
" transform="scale(0.015625)"/>
       <path id="TeXGyreHeros-Regular-6f" d="M 3264 1651 
C 3264 2810 2707 3450 1741 3450 
C 800 3450 230 2803 230 1677 
C 230 550 794 -96 1747 -96 
C 2688 -96 3264 550 3264 1651 
z
M 2707 1658 
C 2707 870 2336 397 1747 397 
C 1152 397 787 864 787 1677 
C 787 2483 1152 2957 1747 2957 
C 2349 2957 2707 2490 2707 1658 
z
" transform="scale(0.015625)"/>
      </defs>
      <use xlink:href="#TeXGyreHeros-Regular-44"/>
      <use xlink:href="#TeXGyreHeros-Regular-65" transform="translate(72.199982 0)"/>
      <use xlink:href="#TeXGyreHeros-Regular-73" transform="translate(127.799973 0)"/>
      <use xlink:href="#TeXGyreHeros-Regular-69" transform="translate(177.799957 0)"/>
      <use xlink:href="#TeXGyreHeros-Regular-72" transform="translate(199.999954 0)"/>
      <use xlink:href="#TeXGyreHeros-Regular-61" transform="translate(233.299942 0)"/>
      <use xlink:href="#TeXGyreHeros-Regular-62" transform="translate(288.899933 0)"/>
      <use xlink:href="#TeXGyreHeros-Regular-69" transform="translate(344.499924 0)"/>
      <use xlink:href="#TeXGyreHeros-Regular-6c" transform="translate(366.699921 0)"/>
      <use xlink:href="#TeXGyreHeros-Regular-69" transform="translate(388.899918 0)"/>
      <use xlink:href="#TeXGyreHeros-Regular-74" transform="translate(411.099915 0)"/>
      <use xlink:href="#TeXGyreHeros-Regular-79" transform="translate(438.899902 0)"/>
      <use xlink:href="#TeXGyreHeros-Regular-20" transform="translate(488.899887 0)"/>
      <use xlink:href="#TeXGyreHeros-Regular-53" transform="translate(516.699875 0)"/>
      <use xlink:href="#TeXGyreHeros-Regular-63" transform="translate(583.399872 0)"/>
      <use xlink:href="#TeXGyreHeros-Regular-6f" transform="translate(633.399857 0)"/>
      <use xlink:href="#TeXGyreHeros-Regular-72" transform="translate(688.999847 0)"/>
      <use xlink:href="#TeXGyreHeros-Regular-65" transform="translate(722.299835 0)"/>
     </g>
    </g>
   </g>
   <g id="line2d_13">
    <path d="M 41.748438 184.36 
L 282.808437 15.63619 
L 282.808437 15.63619 
" clip-path="url(#pf1e7f57010)" style="fill: none; stroke-dasharray: 3.7,1.6; stroke-dashoffset: 0; stroke: #808080"/>
   </g>
   <g id="line2d_14">
    <path d="M 41.748438 184.36 
L 62.341503 184.254813 
L 73.243714 183.983697 
L 82.934568 183.5185 
L 91.414066 182.8844 
L 98.682206 182.137147 
L 105.950347 181.17254 
L 113.218488 179.962831 
L 119.275272 178.747491 
L 125.332056 177.326615 
L 131.38884 175.684145 
L 137.445623 173.804023 
L 143.502407 171.670193 
L 149.559191 169.266597 
L 155.615975 166.577177 
L 160.461402 164.209057 
L 165.306829 161.639512 
L 170.152257 158.860319 
L 174.997684 155.863259 
L 179.843111 152.640108 
L 184.688538 149.182646 
L 189.533965 145.482652 
L 194.379392 141.531903 
L 199.224819 137.322178 
L 204.070247 132.845257 
L 208.915674 128.092917 
L 213.761101 123.056937 
L 218.606528 117.729095 
L 223.451955 112.101171 
L 228.297382 106.164942 
L 233.142809 99.912188 
L 237.988236 93.334686 
L 242.833664 86.424215 
L 247.679091 79.172555 
L 252.524518 71.571483 
L 257.369945 63.612777 
L 262.215372 55.288218 
L 267.060799 46.589582 
L 271.906226 37.508649 
L 276.751654 28.037197 
L 281.597081 18.167005 
L 282.808437 15.63619 
L 282.808437 15.63619 
" clip-path="url(#pf1e7f57010)" style="fill: none; stroke: #6db0d6; stroke-width: 1.5; stroke-linecap: square"/>
   </g>
   <g id="patch_3">
    <path d="M 41.748438 184.36 
L 41.748438 7.2 
" style="fill: none; stroke: #6f6f6c; stroke-width: 0.75; stroke-linejoin: miter; stroke-linecap: square"/>
   </g>
   <g id="patch_4">
    <path d="M 41.748438 184.36 
L 282.808437 184.36 
" style="fill: none; stroke: #6f6f6c; stroke-width: 0.75; stroke-linejoin: miter; stroke-linecap: square"/>
   </g>
   <g id="legend_1">
    <g id="line2d_15">
     <path d="M 47.148438 14.874375 
L 53.148438 14.874375 
L 59.148438 14.874375 
" style="fill: none; stroke-dasharray: 3.7,1.6; stroke-dashoffset: 0; stroke: #808080"/>
    </g>
    <g id="text_15">
     <!-- r=1 (linear) -->
     <g style="fill: #202020" transform="translate(63.948437 16.974375) scale(0.06 -0.06)">
      <defs>
       <path id="TeXGyreHeros-Regular-3d" d="M 3302 1965 
L 3302 2400 
L 435 2400 
L 435 1965 
L 3302 1965 
z
M 3302 800 
L 3302 1235 
L 435 1235 
L 435 800 
L 3302 800 
z
" transform="scale(0.015625)"/>
       <path id="TeXGyreHeros-Regular-6e" d="M 3117 0 
L 3117 2534 
C 3117 3091 2701 3450 2054 3450 
C 1555 3450 1235 3258 941 2790 
L 941 3354 
L 448 3354 
L 448 0 
L 979 0 
L 979 1850 
C 979 2534 1350 2982 1894 2982 
C 2317 2982 2586 2726 2586 2323 
L 2586 0 
L 3117 0 
z
" transform="scale(0.015625)"/>
      </defs>
      <use xlink:href="#TeXGyreHeros-Regular-72"/>
      <use xlink:href="#TeXGyreHeros-Regular-3d" transform="translate(33.299988 0)"/>
      <use xlink:href="#TeXGyreHeros-Regular-31" transform="translate(91.699982 0)"/>
      <use xlink:href="#TeXGyreHeros-Regular-20" transform="translate(147.299973 0)"/>
      <use xlink:href="#TeXGyreHeros-Regular-28" transform="translate(175.09996 0)"/>
      <use xlink:href="#TeXGyreHeros-Regular-6c" transform="translate(208.399948 0)"/>
      <use xlink:href="#TeXGyreHeros-Regular-69" transform="translate(230.599945 0)"/>
      <use xlink:href="#TeXGyreHeros-Regular-6e" transform="translate(252.799942 0)"/>
      <use xlink:href="#TeXGyreHeros-Regular-65" transform="translate(308.399933 0)"/>
      <use xlink:href="#TeXGyreHeros-Regular-61" transform="translate(363.999924 0)"/>
      <use xlink:href="#TeXGyreHeros-Regular-72" transform="translate(419.599915 0)"/>
      <use xlink:href="#TeXGyreHeros-Regular-29" transform="translate(452.899902 0)"/>
     </g>
    </g>
    <g id="line2d_16">
     <path d="M 47.148438 23.556563 
L 53.148438 23.556563 
L 59.148438 23.556563 
" style="fill: none; stroke: #6db0d6; stroke-width: 1.5; stroke-linecap: square"/>
    </g>
    <g id="text_16">
     <!-- r=3 (current) -->
     <g style="fill: #202020" transform="translate(63.948437 25.656563) scale(0.06 -0.06)">
      <defs>
       <path id="TeXGyreHeros-Regular-33" d="M 3238 1318 
C 3238 1869 3014 2189 2470 2374 
C 2893 2541 3104 2835 3104 3290 
C 3104 4070 2586 4538 1722 4538 
C 806 4538 320 4038 301 3072 
L 864 3072 
C 877 3744 1152 4045 1728 4045 
C 2227 4045 2528 3750 2528 3270 
C 2528 2784 2317 2586 1414 2586 
L 1414 2112 
L 1722 2112 
C 2342 2112 2662 1818 2662 1312 
C 2662 742 2310 403 1722 403 
C 1107 403 806 710 768 1370 
L 205 1370 
C 275 358 774 -96 1702 -96 
C 2637 -96 3238 461 3238 1318 
z
" transform="scale(0.015625)"/>
       <path id="TeXGyreHeros-Regular-75" d="M 3085 0 
L 3085 3354 
L 2554 3354 
L 2554 1504 
C 2554 819 2195 371 1638 371 
C 1216 371 947 627 947 1030 
L 947 3354 
L 416 3354 
L 416 819 
C 416 262 832 -96 1485 -96 
C 1978 -96 2291 77 2605 518 
L 2605 0 
L 3085 0 
z
" transform="scale(0.015625)"/>
      </defs>
      <use xlink:href="#TeXGyreHeros-Regular-72"/>
      <use xlink:href="#TeXGyreHeros-Regular-3d" transform="translate(33.299988 0)"/>
      <use xlink:href="#TeXGyreHeros-Regular-33" transform="translate(91.699982 0)"/>
      <use xlink:href="#TeXGyreHeros-Regular-20" transform="translate(147.299973 0)"/>
      <use xlink:href="#TeXGyreHeros-Regular-28" transform="translate(175.09996 0)"/>
      <use xlink:href="#TeXGyreHeros-Regular-63" transform="translate(208.399948 0)"/>
      <use xlink:href="#TeXGyreHeros-Regular-75" transform="translate(258.399933 0)"/>
      <use xlink:href="#TeXGyreHeros-Regular-72" transform="translate(313.999924 0)"/>
      <use xlink:href="#TeXGyreHeros-Regular-72" transform="translate(347.299911 0)"/>
      <use xlink:href="#TeXGyreHeros-Regular-65" transform="translate(380.599899 0)"/>
      <use xlink:href="#TeXGyreHeros-Regular-6e" transform="translate(436.19989 0)"/>
      <use xlink:href="#TeXGyreHeros-Regular-74" transform="translate(491.799881 0)"/>
      <use xlink:href="#TeXGyreHeros-Regular-29" transform="translate(519.599869 0)"/>
     </g>
    </g>
   </g>
  </g>
 </g>
 <defs>
  <clipPath id="pf1e7f57010">
   <rect x="41.748438" y="7.2" width="241.06" height="177.16"/>
  </clipPath>
 </defs>
</svg>
